<mxfile host="app.diagrams.net" modified="2021-07-27T20:35:15.606Z" agent="5.0 (Windows NT 10.0; Win64; x64) AppleWebKit/537.36 (KHTML, like Gecko) Chrome/92.0.4515.107 Safari/537.36" etag="06QD7jbGNguoIod8Ja2u" version="14.9.2" type="github">
  <diagram id="z5KJkQf9h7otm-3xSCzf" name="Page-1">
    <mxGraphModel dx="843" dy="496" grid="1" gridSize="10" guides="1" tooltips="1" connect="1" arrows="1" fold="1" page="1" pageScale="1" pageWidth="827" pageHeight="1169" math="0" shadow="0">
      <root>
        <mxCell id="0" />
        <mxCell id="1" parent="0" />
        <mxCell id="9U8IY1a_Q9Ol7Kr8v1v0-1" value="Monitor&lt;br&gt;" style="shape=umlActor;verticalLabelPosition=bottom;verticalAlign=top;html=1;outlineConnect=0;fontFamily=Helvetica;" vertex="1" parent="1">
          <mxGeometry x="160" y="420" width="30" height="60" as="geometry" />
        </mxCell>
        <mxCell id="9U8IY1a_Q9Ol7Kr8v1v0-2" value="Orientador&lt;br&gt;" style="shape=umlActor;verticalLabelPosition=bottom;verticalAlign=top;html=1;outlineConnect=0;" vertex="1" parent="1">
          <mxGeometry x="780" y="270" width="30" height="60" as="geometry" />
        </mxCell>
        <mxCell id="9U8IY1a_Q9Ol7Kr8v1v0-3" value="Receber dados do monitor" style="ellipse;whiteSpace=wrap;html=1;" vertex="1" parent="1">
          <mxGeometry x="280" y="420" width="120" height="80" as="geometry" />
        </mxCell>
        <mxCell id="9U8IY1a_Q9Ol7Kr8v1v0-4" value="" style="endArrow=none;html=1;exitX=0;exitY=0.5;exitDx=0;exitDy=0;" edge="1" parent="1" source="9U8IY1a_Q9Ol7Kr8v1v0-3">
          <mxGeometry width="50" height="50" relative="1" as="geometry">
            <mxPoint x="330" y="340" as="sourcePoint" />
            <mxPoint x="210" y="460" as="targetPoint" />
          </mxGeometry>
        </mxCell>
        <mxCell id="9U8IY1a_Q9Ol7Kr8v1v0-5" style="edgeStyle=orthogonalEdgeStyle;rounded=0;orthogonalLoop=1;jettySize=auto;html=1;exitX=0;exitY=0.5;exitDx=0;exitDy=0;entryX=1;entryY=0.5;entryDx=0;entryDy=0;dashed=1;" edge="1" parent="1" source="9U8IY1a_Q9Ol7Kr8v1v0-7" target="9U8IY1a_Q9Ol7Kr8v1v0-3">
          <mxGeometry relative="1" as="geometry" />
        </mxCell>
        <mxCell id="9U8IY1a_Q9Ol7Kr8v1v0-6" style="edgeStyle=orthogonalEdgeStyle;rounded=0;orthogonalLoop=1;jettySize=auto;html=1;exitX=1;exitY=0.5;exitDx=0;exitDy=0;entryX=0;entryY=0.5;entryDx=0;entryDy=0;endArrow=none;endFill=0;" edge="1" parent="1" source="9U8IY1a_Q9Ol7Kr8v1v0-7" target="9U8IY1a_Q9Ol7Kr8v1v0-9">
          <mxGeometry relative="1" as="geometry" />
        </mxCell>
        <mxCell id="9U8IY1a_Q9Ol7Kr8v1v0-7" value="Gravar as informações" style="ellipse;whiteSpace=wrap;html=1;" vertex="1" parent="1">
          <mxGeometry x="560" y="420" width="120" height="80" as="geometry" />
        </mxCell>
        <mxCell id="9U8IY1a_Q9Ol7Kr8v1v0-8" style="edgeStyle=orthogonalEdgeStyle;rounded=0;orthogonalLoop=1;jettySize=auto;html=1;exitX=0.5;exitY=0;exitDx=0;exitDy=0;endArrow=none;endFill=0;" edge="1" parent="1" source="9U8IY1a_Q9Ol7Kr8v1v0-9">
          <mxGeometry relative="1" as="geometry">
            <mxPoint x="795" y="360" as="targetPoint" />
          </mxGeometry>
        </mxCell>
        <mxCell id="9U8IY1a_Q9Ol7Kr8v1v0-9" value="Enviar pendência para Orientador" style="ellipse;whiteSpace=wrap;html=1;" vertex="1" parent="1">
          <mxGeometry x="730" y="415" width="130" height="90" as="geometry" />
        </mxCell>
        <mxCell id="9U8IY1a_Q9Ol7Kr8v1v0-10" value="&amp;lt;&amp;lt;extend&amp;gt;&amp;gt;&lt;br&gt;Caso informações tenham sido preenchidas corretamente" style="text;html=1;strokeColor=none;fillColor=none;align=center;verticalAlign=middle;whiteSpace=wrap;rounded=0;" vertex="1" parent="1">
          <mxGeometry x="413.5" y="420" width="140" height="20" as="geometry" />
        </mxCell>
      </root>
    </mxGraphModel>
  </diagram>
</mxfile>
